<?xml version="1.0" encoding="utf-8"?>
<!-- Generator: Adobe Illustrator 24.2.3, SVG Export Plug-In . SVG Version: 6.00 Build 0)  -->
<svg version="1.1" id="Bold" xmlns="http://www.w3.org/2000/svg" xmlns:xlink="http://www.w3.org/1999/xlink" x="0px" y="0px"
	 viewBox="0 0 512 512" style="enable-background:new 0 0 512 512;" xml:space="preserve">
<style type="text/css">
	.st0{fill:#606060;}
</style>
<path class="st0" d="M394.7,21.3H117.3C52.6,21.4,0.1,73.9,0,138.7v234.7c0.1,64.8,52.6,117.3,117.3,117.3h277.3
	c64.8-0.1,117.3-52.6,117.3-117.3V138.7C511.9,73.9,459.4,21.4,394.7,21.3z M394.7,85.3c12.9,0,25.4,4.8,35.1,13.5L291.1,237.5
	c-19.6,18.7-50.4,18.7-69.9,0L82.5,98.8c9.6-8.6,22-13.4,34.9-13.5H394.7z M394.7,426.7H117.3c-29.5,0-53.3-23.9-53.3-53.3V171
	l111.8,111.8c44.3,44.3,116.1,44.3,160.4,0c0,0,0,0,0,0L448,171v202.3C448,402.8,424.1,426.7,394.7,426.7z"/>
</svg>
