<?xml version="1.0" encoding="utf-8"?>
<!-- Generator: Adobe Illustrator 24.2.3, SVG Export Plug-In . SVG Version: 6.00 Build 0)  -->
<svg version="1.1" id="Capa_1" xmlns="http://www.w3.org/2000/svg" xmlns:xlink="http://www.w3.org/1999/xlink" x="0px" y="0px"
	 viewBox="0 0 512 512" style="enable-background:new 0 0 512 512;" xml:space="preserve">
<style type="text/css">
	.st0{fill:#CCCCCC;}
</style>
<g>
	<path class="st0" d="M170.7,448H72.8c-4.8,0-8.7-3.9-8.7-8.7V72.7c0-4.8,3.9-8.7,8.7-8.7h97.9c17.7,0,32-14.3,32-32s-14.3-32-32-32
		H72.8C32.6,0,0.1,32.6,0,72.7v366.5c0,40.1,32.6,72.7,72.7,72.7h97.9c17.7,0,32-14.3,32-32S188.4,448,170.7,448z"/>
	<path class="st0" d="M483.9,188.1l-82.8-82.8c-12.5-12.5-32.8-12.5-45.3,0s-12.5,32.8,0,45.3l72.8,72.8L138.7,224
		c-17.7,0-32,14.3-32,32s14.3,32,32,32l0,0l291.1-0.5l-74,74c-12,12.9-11.3,33.2,1.6,45.2c12.3,11.4,31.3,11.4,43.6,0l82.8-82.8
		C521.3,286.4,521.3,225.6,483.9,188.1L483.9,188.1L483.9,188.1z"/>
</g>
</svg>
