<svg xmlns="http://www.w3.org/2000/svg" viewBox="0 0 34.1 34.1"><defs><style>.cls-1{fill:#ccc;}</style></defs><g id="Capa_2" data-name="Capa 2"><g id="Capa_1-2" data-name="Capa 1"><path class="cls-1" d="M32.22,30.34H7.4a3.64,3.64,0,0,1-3.64-3.63V1.88A1.88,1.88,0,0,0,0,1.88V26.71A7.41,7.41,0,0,0,7.4,34.1H32.22a1.88,1.88,0,1,0,0-3.76Z"/><path class="cls-1" d="M8.78,28.59a1.89,1.89,0,0,0,1.88-1.88V17.05a1.88,1.88,0,1,0-3.76,0v9.66A1.88,1.88,0,0,0,8.78,28.59Z"/><path class="cls-1" d="M13.79,14.29V26.71a1.88,1.88,0,0,0,3.76,0V14.29a1.88,1.88,0,0,0-3.76,0Z"/><path class="cls-1" d="M20.69,18.43v8.28a1.88,1.88,0,0,0,3.76,0V18.43a1.88,1.88,0,0,0-3.76,0Z"/><path class="cls-1" d="M8.78,13.41h0a1.82,1.82,0,0,0,1.32-.55L15,7.93a.9.9,0,0,1,1.25,0l3,3a4.64,4.64,0,0,0,6.56,0L33.56,3.2A1.88,1.88,0,0,0,30.9.55l-7.71,7.7a.86.86,0,0,1-1.24,0l-3-3a4.64,4.64,0,0,0-6.56,0l-4.94,5a1.88,1.88,0,0,0,1.33,3.2Z"/></g></g></svg>