<svg xmlns="http://www.w3.org/2000/svg" viewBox="0 0 31.51 31.51"><defs><style>.cls-1{fill:#ccc;}</style></defs><g id="Capa_2" data-name="Capa 2"><g id="Capa_1-2" data-name="Capa 1"><path class="cls-1" d="M30.16,11.41l-9.3-9.3a7.24,7.24,0,0,0-10.21,0l-9.3,9.3A4.56,4.56,0,0,0,0,14.66V28.29a3.22,3.22,0,0,0,3.22,3.22H28.28a3.23,3.23,0,0,0,3.23-3.22V14.66A4.56,4.56,0,0,0,30.16,11.41ZM27.57,27.57H3.94V14.66a.66.66,0,0,1,.19-.46l9.3-9.3a3.27,3.27,0,0,1,4.64,0h0l9.31,9.3a.66.66,0,0,1,.19.46Z"/></g></g></svg>