<?xml version="1.0" encoding="utf-8"?>
<!-- Generator: Adobe Illustrator 24.2.3, SVG Export Plug-In . SVG Version: 6.00 Build 0)  -->
<svg version="1.1" id="Capa_1" xmlns="http://www.w3.org/2000/svg" xmlns:xlink="http://www.w3.org/1999/xlink" x="0px" y="0px"
	 viewBox="0 0 512 512" style="enable-background:new 0 0 512 512;" xml:space="preserve">
<style type="text/css">
	.st0{fill:#606060;}
</style>
<g>
	<path class="st0" d="M244.3,299.1c-90.9,8.2-160.2,85-159,176.3v4.6c0,17.7,14.3,32,32,32l0,0c17.7,0,32-14.3,32-32v-5.9
		c-1-56,40.4-103.8,96-110.9c58.7-5.8,111,37,116.8,95.7c0.3,3.5,0.5,7,0.5,10.4V480c0,17.7,14.3,32,32,32l0,0c17.7,0,32-14.3,32-32
		v-10.7c-0.1-94.4-76.7-170.8-171-170.7C251.9,298.7,248.1,298.8,244.3,299.1z"/>
	<path class="st0" d="M256,256c70.7,0,128-57.3,128-128S326.7,0,256,0S128,57.3,128,128C128.1,198.7,185.3,255.9,256,256z M256,64
		c35.3,0,64,28.7,64,64s-28.7,64-64,64s-64-28.7-64-64S220.7,64,256,64z"/>
</g>
</svg>
