<?xml version="1.0" encoding="utf-8"?>
<!-- Generator: Adobe Illustrator 24.2.3, SVG Export Plug-In . SVG Version: 6.00 Build 0)  -->
<svg version="1.1" id="Layer_1" xmlns="http://www.w3.org/2000/svg" xmlns:xlink="http://www.w3.org/1999/xlink" x="0px" y="0px"
	 viewBox="0 0 512 512" style="enable-background:new 0 0 512 512;" xml:space="preserve">
<style type="text/css">
	.st0{fill:#606060;}
</style>
<path class="st0" d="M373.3,512C199.5,516.9-108.3,208.8,39.7,41.3C40.3,40.8,63,21,63,21c29.7-27.4,75.5-27,104.7,0.9l45.9,49.5
	c28.1,29.4,27.7,75.8-0.8,104.7l-8.3,8.4c24.7,54.6,68.3,98.4,122.8,123.3l8.8-8.5c29.5-28.1,76-28.1,105.5,0l47.7,44.3
	c29.4,28.7,30.2,75.8,1.7,105.5c0,0-19.8,22.7-20.4,23.3C444.8,498,409.8,512.3,373.3,512z M84.3,87.5
	c-103.7,128.4,228.1,441,340.4,340.3c0,0,19.7-22.6,20.2-23.1c4.2-4.2,4.2-10.9,0-15.1l-47.7-44.2c-6.4-5.3-10-5.4-15.9-0.9
	L357,368.3c-8.9,8.8-22.2,11.5-33.9,7.1c-86.1-32.1-154.1-99.9-186.3-186c-4.7-11.8-2-25.3,6.9-34.3l23.6-24
	c4.3-3.8,4.7-10.3,0.9-14.6c-0.2-0.2-0.4-0.5-0.7-0.7l-46-49.5c-4.2-3.5-10.5-3.2-14.2,0.9C106.9,67.6,84.3,87.5,84.3,87.5z
	 M358.6,321.8L358.6,321.8z M512,202.7C511.9,90.8,421.2,0.1,309.3,0c-17.7,0-32,14.3-32,32s14.3,32,32,32
	c76.5,0.1,138.6,62.1,138.7,138.7c0,17.7,14.3,32,32,32S512,220.3,512,202.7z M405.3,202.7c-0.1-53-43-95.9-96-96
	c-17.7,0-32,14.3-32,32s14.3,32,32,32s32,14.3,32,32s14.3,32,32,32S405.3,220.3,405.3,202.7z"/>
</svg>
