<svg xmlns="http://www.w3.org/2000/svg" viewBox="0 0 32.71 32.71"><defs><style>.cls-1{fill:#ccc;}</style></defs><g id="Capa_2" data-name="Capa 2"><g id="Capa_1-2" data-name="Capa 1"><path class="cls-1" d="M24.77,22.23v-1.9a1.8,1.8,0,0,0-3.59,0V23a1.78,1.78,0,0,0,.53,1.26L23,25.57a1.81,1.81,0,0,0,2.54,0,1.81,1.81,0,0,0,0-2.54Z"/><path class="cls-1" d="M25.62,2.65h-.85V1.79a1.8,1.8,0,0,0-3.59,0v.86H11.53V1.79a1.8,1.8,0,0,0-3.59,0v.86H7.09A7.1,7.1,0,0,0,0,9.74V25.62a7.1,7.1,0,0,0,7.09,7.09h5.29a1.79,1.79,0,0,0,0-3.58H7.09a3.51,3.51,0,0,1-3.51-3.51V14.18H15a1.8,1.8,0,0,0,0-3.59H3.58V9.74A3.51,3.51,0,0,1,7.09,6.23H25.62a3.51,3.51,0,0,1,3.51,3.51v2.64a1.79,1.79,0,1,0,3.58,0V9.74A7.1,7.1,0,0,0,25.62,2.65Z"/><path class="cls-1" d="M23,13.29A9.71,9.71,0,1,0,32.71,23,9.75,9.75,0,0,0,23,13.29Zm0,15.84A6.13,6.13,0,1,1,29.13,23,6.14,6.14,0,0,1,23,29.13Z"/></g></g></svg>